<svg xmlns="http://www.w3.org/2000/svg" width="13.474" height="16" viewBox="0 0 13.474 16">
  <g id="bus_2_" data-name="bus (2)" transform="translate(-32)">
    <g id="Group_814" data-name="Group 814" transform="translate(32)">
      <path id="Path_1707" data-name="Path 1707" d="M38.737,0C35.015,0,32,.421,32,3.368v8.421a2.508,2.508,0,0,0,.842,1.869v1.5a.845.845,0,0,0,.842.842h.842a.842.842,0,0,0,.842-.842v-.842h6.737v.842a.842.842,0,0,0,.842.842h.842a.845.845,0,0,0,.842-.842v-1.5a2.508,2.508,0,0,0,.842-1.869V3.368C45.474.421,42.459,0,38.737,0ZM34.947,12.632a1.263,1.263,0,1,1,1.263-1.263A1.261,1.261,0,0,1,34.947,12.632Zm7.579,0a1.263,1.263,0,1,1,1.263-1.263A1.261,1.261,0,0,1,42.526,12.632Zm1.263-5.053H33.684V3.368H43.789Z" transform="translate(-32)" fill="#163df9"/>
    </g>
  </g>
</svg>
