<svg xmlns="http://www.w3.org/2000/svg" width="90.017" height="90.017" viewBox="0 0 90.017 90.017">
  <path id="check-mark" d="M64.9,30.728a3.516,3.516,0,0,1,0,4.973L41.315,59.291a3.517,3.517,0,0,1-4.973,0L25.113,48.06a3.516,3.516,0,0,1,4.972-4.972l8.743,8.743,21.1-21.1a3.517,3.517,0,0,1,4.973,0ZM90.017,45.009A45.009,45.009,0,1,1,45.009,0,44.984,44.984,0,0,1,90.017,45.009Zm-7.033,0A37.976,37.976,0,1,0,45.009,82.985,37.955,37.955,0,0,0,82.985,45.009Zm0,0" transform="translate(0 0)" fill="#163df9"/>
</svg>
