<svg width="31" height="24" viewBox="0 0 31 24" fill="none" xmlns="http://www.w3.org/2000/svg">
<rect width="31" height="24" rx="4" fill="#FFD228"/>
<path d="M24.0719 11.5362C24.0719 16.2504 20.2504 20.0725 15.5362 20.0725C14.6388 20.0725 13.774 19.9335 12.9611 19.677C11.7377 19.2905 10.6329 18.6358 9.71678 17.7817C8.04545 16.2231 7 14.0018 7 11.5362C7 6.82156 10.8216 3 15.5362 3C16.5566 3 17.5352 3.17905 18.4422 3.50776C19.6213 3.93428 20.6796 4.61361 21.5519 5.48001C23.1083 7.0268 24.0719 9.16901 24.0719 11.5362Z" fill="white"/>
<path d="M19.4962 15.1617L18.3471 14.5871C18.3471 14.5871 16.3866 18.1559 12.9611 19.677C11.7377 19.2906 10.6329 18.6359 9.7168 17.7812C10.4672 17.6722 11.6842 17.2868 12.9654 16.027C15.0563 13.9704 15.5363 12.8389 15.5363 12.8389L14.6399 12.2413C14.3321 12.0361 14.3914 11.5673 14.7409 11.4455L18.6844 10.0718C18.9527 9.97829 19.2392 10.1552 19.276 10.4363L19.8618 14.9014C19.8886 15.1029 19.678 15.2526 19.4962 15.1617Z" fill="#006D95"/>
<path d="M20.6846 10.2193C20.5879 10.4631 20.2319 10.4272 20.187 10.1686L19.9241 8.6565L17.9748 9.2626C17.7589 9.32941 17.567 9.10867 17.6632 8.9045C17.9165 8.3636 18.296 7.44268 18.5873 6.25666C18.8636 5.13211 18.6627 4.14438 18.4425 3.50781C19.6215 3.93433 20.6803 4.61366 21.5526 5.48006C21.7098 7.26898 21.0972 9.17388 20.6846 10.2193Z" fill="#006D95"/>
</svg>
