<svg xmlns="http://www.w3.org/2000/svg" width="19" height="19" viewBox="0 0 19 19">
  <path id="Icon_awesome-globe-americas" data-name="Icon awesome-globe-americas" d="M9.5.563a9.5,9.5,0,1,0,9.5,9.5A9.5,9.5,0,0,0,9.5.563Zm3.152,13.7-.433.432a.915.915,0,0,0-.236.41c-.058.217-.1.436-.183.646l-.666,1.795a7.655,7.655,0,0,1-1.634.18V16.675a2.868,2.868,0,0,0-.867-1.963,1.226,1.226,0,0,1-.359-.867V12.619a1.222,1.222,0,0,0-.631-1.071c-.55-.3-1.333-.73-1.87-1a5.522,5.522,0,0,1-1.212-.833l-.031-.028a4.4,4.4,0,0,1-.692-.794c-.359-.527-.945-1.4-1.325-1.959a7.7,7.7,0,0,1,3.953-3.9l.92.46a.613.613,0,0,0,.887-.548V2.509a7.656,7.656,0,0,1,.934-.093L10.293,3.5a.613.613,0,0,1,0,.867l-.18.179-.4.4a.307.307,0,0,0,0,.433l.18.18a.307.307,0,0,1,0,.433L9.59,6.3a.307.307,0,0,1-.217.09H9.029a.306.306,0,0,0-.214.087l-.38.37a.307.307,0,0,0-.061.357l.6,1.195a.307.307,0,0,1-.274.444H8.482a.306.306,0,0,1-.2-.075l-.355-.309a.614.614,0,0,0-.6-.119l-1.194.4a.458.458,0,0,0-.06.844l.424.212a2.594,2.594,0,0,0,1.161.274c.4,0,.865,1.045,1.226,1.226h2.557a1.227,1.227,0,0,1,.867.359l.524.524a1.168,1.168,0,0,1,.342.826,1.783,1.783,0,0,1-.526,1.263Zm3.322-3.5a.919.919,0,0,1-.542-.382l-.689-1.033a.918.918,0,0,1,0-1.02l.75-1.125a.918.918,0,0,1,.354-.312l.5-.249a7.421,7.421,0,0,1,.747,4.4Z" transform="translate(0 -0.563)" fill="#6b6666"/>
</svg>
