<?xml version="1.0" encoding="utf-8"?>
<!-- Generator: Adobe Illustrator 25.2.3, SVG Export Plug-In . SVG Version: 6.00 Build 0)  -->
<svg version="1.1" id="Layer_1" xmlns="http://www.w3.org/2000/svg" xmlns:xlink="http://www.w3.org/1999/xlink" x="0px" y="0px"
	 viewBox="0 0 6 78.1" style="enable-background:new 0 0 6 78.1;" xml:space="preserve">
<style type="text/css">
	.st0{fill:#929295;}
	.st1{fill:#E30000;}
</style>
<g id="left" transform="translate(-32 -183.938)">
	<path id="Rectangle_253" class="st0" d="M35,185.5L35,185.5c0.6,0,1,0.4,1,1v13c0,0.6-0.4,1-1,1l0,0c-0.6,0-1-0.4-1-1v-13
		C34,185.9,34.4,185.5,35,185.5z"/>
	<path id="Rectangle_255" class="st1" d="M35,202.5L35,202.5c0.6,0,1,0.4,1,1v39c0,0.6-0.4,1-1,1l0,0c-0.6,0-1-0.4-1-1v-39
		C34,202.9,34.4,202.5,35,202.5z"/>
	<path id="Rectangle_254" class="st0" d="M35,245.5L35,245.5c0.6,0,1,0.4,1,1v13c0,0.6-0.4,1-1,1l0,0c-0.6,0-1-0.4-1-1v-13
		C34,245.9,34.4,245.5,35,245.5z"/>
</g>
</svg>
