<svg xmlns="http://www.w3.org/2000/svg" width="215.471" height="58.267" viewBox="0 0 215.471 58.267">
  <g id="Group_6" data-name="Group 6" transform="translate(-147.162 -390.126)">
    <g id="Group_1" data-name="Group 1" transform="translate(235.157 390.373)">
      <path id="Path_1" data-name="Path 1" d="M649.721,446.364a7.476,7.476,0,0,1-.488.573,7.9,7.9,0,0,1-1.279,1.084,7.082,7.082,0,0,1-4.016,1.319c-2.47,0-4.908-1.441-6.878-4.2l-7.119-11.146-12.66-19.826-.055-.087-.363-.581c-.183-.328-.378-.648-.584-.953a14.123,14.123,0,0,0-25.855,7.854c0,.209-.012.424-.032.66l-.006.07c-.017-.113-.038-.232-.055-.354l-.023-.151c-.107-.782-.218-1.642-.273-2.086a37.627,37.627,0,0,0-1.866-8.8,29.849,29.849,0,0,0-5.129-8.839,29.029,29.029,0,0,1,46.9,5.41l13.576,21.5,5.933,9.394C651.616,440.2,651.691,443.789,649.721,446.364Z" transform="translate(-583.04 -391.349)" fill="#e30000"/>
      <path id="Path_2" data-name="Path 2" d="M947.154,423.288a11.788,11.788,0,0,1-9.406,4.629H918.68a7.443,7.443,0,0,1,0-14.886h14.505a14.155,14.155,0,0,0-23.874-.29l-1.412,2.293-.116.189-.72,1.174-.212.349-10.667,17.684-.093.154-.064.1-6.663,11.05a8.227,8.227,0,0,1-.538.709c1.97-2.575,1.895-6.166-.267-9.171l-5.933-9.394,13.416-21.973a29.039,29.039,0,0,1,53.184,7.151A11.743,11.743,0,0,1,947.154,423.288Z" transform="translate(-822.146 -391.43)" fill="#163df9"/>
    </g>
    <path id="Path_15" data-name="Path 15" d="M993.178,527.92H974.4a14.3,14.3,0,0,1-14.285-14.285,15.744,15.744,0,0,1,.811-4.71c.108-.324.136-.482.222-.749l-.425.692-.631,1.038-10.664,17.684-.093.154A28.659,28.659,0,0,0,974.4,542.516h18.78a7.3,7.3,0,1,0,0-14.6Zm5.582,2.862a7.923,7.923,0,0,0-.549-.616,7.384,7.384,0,0,1,.549.616,6.864,6.864,0,0,1,.477.674A7.373,7.373,0,0,0,998.76,530.782Z" transform="translate(-640.228 -94.219)" fill="#e30000"/>
    <path id="Path_16" data-name="Path 16" d="M282.059,433.012A28.448,28.448,0,0,1,256.6,448.218a29.247,29.247,0,0,1-28.232-22.723,50.139,50.139,0,0,1-1.029-6.1,25.242,25.242,0,0,0-1.043-5.445,15.189,15.189,0,0,0-2.775-4.687,11.843,11.843,0,0,0-8.828-4.208c-6.924,0-12.556,6.332-12.556,14.116v20.886a7.475,7.475,0,0,1-7.692,7.462A7.571,7.571,0,0,1,187.2,439.9V419.172c0-.264-.009-.546-.026-.88-.41-7.421-5.913-13.236-12.53-13.236-6.924,0-12.556,6.332-12.556,14.116V440.93a7.5,7.5,0,0,1-7.323,7.462,7.3,7.3,0,0,1-5.277-2.133,7.785,7.785,0,0,1-2.33-5.521V419.172c0-16.017,12.329-29.046,27.486-29.046a26.887,26.887,0,0,1,20.023,9.171,26.356,26.356,0,0,1,40.079.134c.087.1.168.2.253.3l.139.169c.006.006.009.012.015.018a29.85,29.85,0,0,1,5.129,8.839,37.631,37.631,0,0,1,1.866,8.8c.055.445.166,1.3.273,2.086l.023.151c.017.122.038.241.055.355.108.668.218,1.223.343,1.726a14.853,14.853,0,0,0,3.548,6.855,14.6,14.6,0,0,0,10.2,4.559,14.167,14.167,0,0,0,14.113-13.927,14.425,14.425,0,0,0-.349-3.368,25.98,25.98,0,0,0-.962-2.807Z" fill="#163df9"/>
  </g>
</svg>
