<svg xmlns="http://www.w3.org/2000/svg" width="194.367" height="140.314" viewBox="0 0 194.367 140.314">
  <g id="color_line" data-name="color line" transform="translate(-1.776 -9.708)">
    <path id="Path_842" data-name="Path 842" d="M24.974,118.455H14.847a7.5,7.5,0,0,1-7.5-7.5V25.132a7.5,7.5,0,0,1,7.5-7.5H142.8a12.469,12.469,0,0,1,10.847,6.319l22.522,39.585a12.634,12.634,0,0,1,1.606,6.161v41.257a7.482,7.482,0,0,1-7.482,7.5H160.173" transform="translate(9.961 14.167)" fill="#dd2b2a"/>
    <path id="Path_843" data-name="Path 843" d="M177.76,69.722v41.257a7.477,7.477,0,0,1-7.471,7.5H14.849a7.5,7.5,0,0,1-7.5-7.5v-.836H162.734a7.5,7.5,0,0,0,7.471-7.5V70.053a12.475,12.475,0,0,0-1.617-6.161L142.044,17.656c3.925-.148,4.273.145,5.776,1.051a12.544,12.544,0,0,1,5.826,5.269l22.524,39.585A12.748,12.748,0,0,1,177.76,69.722Z" transform="translate(9.964 14.144)" fill="#860302"/>
    <path id="Path_844" data-name="Path 844" d="M97.219,56.088H26.05a1.394,1.394,0,1,1,0-2.788H97.219a1.394,1.394,0,0,1,0,2.788Z" transform="translate(40.902 77.928)" fill="#323c6b"/>
    <path id="Path_845" data-name="Path 845" d="M156.287,59.143l-21.03-37a.279.279,0,0,0-.251-.148H11.719V59.143Z" transform="translate(17.775 21.974)" fill="#eeefee"/>
    <g id="Group_790" data-name="Group 790" transform="translate(28.1 40.172)">
      <path id="Path_846" data-name="Path 846" d="M157.181,61.431H12.613a1.394,1.394,0,0,1-1.394-1.394V22.894A1.394,1.394,0,0,1,12.613,21.5H135.9a1.673,1.673,0,0,1,1.464.853l21.03,37a1.394,1.394,0,0,1-1.213,2.082ZM14.007,58.643H154.784L135.256,24.288H13.993Z" transform="translate(-11.219 -19.091)" fill="#323c6b"/>
      <path id="Path_847" data-name="Path 847" d="M24.731,61.431a1.394,1.394,0,0,1-1.394-1.394V22.894a1.394,1.394,0,1,1,2.788,0V60.037A1.394,1.394,0,0,1,24.731,61.431Z" transform="translate(10.444 -19.091)" fill="#323c6b"/>
      <path id="Path_848" data-name="Path 848" d="M36.522,61.431a1.394,1.394,0,0,1-1.394-1.394V22.894a1.394,1.394,0,1,1,2.788,0V60.037A1.394,1.394,0,0,1,36.522,61.431Z" transform="translate(31.522 -19.091)" fill="#323c6b"/>
      <path id="Path_849" data-name="Path 849" d="M48.313,61.431a1.394,1.394,0,0,1-1.394-1.394V22.894a1.394,1.394,0,1,1,2.788,0V60.037A1.394,1.394,0,0,1,48.313,61.431Z" transform="translate(52.601 -19.091)" fill="#323c6b"/>
      <path id="Path_850" data-name="Path 850" d="M90.6,40.757a1.394,1.394,0,0,1-1.394-1.394V32.523a9.11,9.11,0,0,0-9.1-9.1H61.43a1.394,1.394,0,0,1,0-2.788H80.107A11.9,11.9,0,0,1,91.994,32.523v6.841A1.394,1.394,0,0,1,90.6,40.757Z" transform="translate(76.049 -20.636)" fill="#323c6b"/>
    </g>
    <circle id="Ellipse_29" data-name="Ellipse 29" cx="16.012" cy="16.012" r="16.012" transform="translate(138.107 116.604)" fill="#707583"/>
    <path id="Path_851" data-name="Path 851" d="M67.59,82.366a17.406,17.406,0,1,1,17.4-17.4,17.407,17.407,0,0,1-17.4,17.4Zm0-32.022A14.619,14.619,0,1,0,82.206,64.963,14.619,14.619,0,0,0,67.59,50.344Z" transform="translate(86.532 67.656)" fill="#323c6b"/>
    <circle id="Ellipse_30" data-name="Ellipse 30" cx="9.018" cy="9.018" r="9.018" transform="translate(145.101 123.598)" fill="#bbbbcd"/>
    <circle id="Ellipse_31" data-name="Ellipse 31" cx="16.012" cy="16.012" r="16.012" transform="translate(34.938 116.604)" fill="#707583"/>
    <path id="Path_852" data-name="Path 852" d="M30.58,82.366a17.406,17.406,0,1,1,17.4-17.4A17.407,17.407,0,0,1,30.58,82.366Zm0-32.022A14.619,14.619,0,1,0,45.2,64.963,14.619,14.619,0,0,0,30.58,50.344Z" transform="translate(20.37 67.656)" fill="#323c6b"/>
    <path id="Path_853" data-name="Path 853" d="M69.2,41.05h6.18V55.42H69.2a4.577,4.577,0,0,1-4.577-4.577V45.627A4.577,4.577,0,0,1,69.2,41.05Z" transform="translate(112.353 56.029)" fill="#fcd462"/>
    <path id="Path_854" data-name="Path 854" d="M76.276,57.71H70.1a5.98,5.98,0,0,1-5.974-5.971V46.523A5.98,5.98,0,0,1,70.1,40.549h6.18a1.394,1.394,0,0,1,1.394,1.394v14.37a1.394,1.394,0,0,1-1.4,1.4ZM70.1,43.339a3.189,3.189,0,0,0-3.186,3.186v5.216A3.189,3.189,0,0,0,70.1,54.925h4.786V43.339Z" transform="translate(111.459 55.133)" fill="#323c6b"/>
    <path id="Path_855" data-name="Path 855" d="M4.577,0h6.18V17.562H4.577A4.577,4.577,0,0,1,0,12.991V4.577A4.577,4.577,0,0,1,4.577,0Z" transform="translate(28.069 107.538) rotate(180)" fill="#fcd462"/>
    <path id="Path_856" data-name="Path 856" d="M14.422,58.35H8.242a1.394,1.394,0,0,1-1.394-1.394V39.394A1.394,1.394,0,0,1,8.242,38h6.18A5.98,5.98,0,0,1,20.4,43.971v8.413A5.98,5.98,0,0,1,14.422,58.35ZM9.633,55.562h4.789a3.189,3.189,0,0,0,3.186-3.186v-8.4a3.189,3.189,0,0,0-3.186-3.184H9.636Z" transform="translate(9.067 50.577)" fill="#323c6b"/>
    <path id="Path_857" data-name="Path 857" d="M40.216,14.333H69.67a6.041,6.041,0,0,1,6.041,6.041v3.158H34.175V20.374a6.041,6.041,0,0,1,6.041-6.041Z" transform="translate(57.919 8.268)" fill="#9297ab"/>
    <path id="Path_858" data-name="Path 858" d="M76.605,25.82H35.069a1.394,1.394,0,0,1-1.394-1.394V21.268a7.443,7.443,0,0,1,7.435-7.435H70.564A7.443,7.443,0,0,1,78,21.268v3.158a1.394,1.394,0,0,1-1.394,1.394ZM36.463,23.032H75.211V21.268a4.653,4.653,0,0,0-4.647-4.647H41.11a4.653,4.653,0,0,0-4.647,4.647Z" transform="translate(57.025 7.374)" fill="#323c6b"/>
    <path id="Path_859" data-name="Path 859" d="M5.242,54.488a1.394,1.394,0,0,1-1.394-1.394v-1.7a1.394,1.394,0,0,1,2.788,0v1.7A1.394,1.394,0,0,1,5.242,54.488Z" transform="translate(3.704 72.029)" fill="#323c6b"/>
    <path id="Path_860" data-name="Path 860" d="M5.242,63.056a1.394,1.394,0,0,1-1.394-1.394V42.207a1.394,1.394,0,1,1,2.788,0V61.662A1.394,1.394,0,0,1,5.242,63.056Z" transform="translate(3.704 55.605)" fill="#323c6b"/>
    <path id="Path_861" data-name="Path 861" d="M76.646,26.307a1.394,1.394,0,0,1-1.162-.627,19.369,19.369,0,0,0-16.168-8.759H55.457a1.394,1.394,0,0,1,0-2.788h3.85a22.14,22.14,0,0,1,18.5,10.011,1.394,1.394,0,0,1-1.162,2.16Z" transform="translate(93.472 7.91)" fill="#323c6b"/>
    <path id="Path_862" data-name="Path 862" d="M53.726,16.921H52.332a1.394,1.394,0,0,1,0-2.788h1.394a1.394,1.394,0,0,1,0,2.788Z" transform="translate(87.885 7.91)" fill="#323c6b"/>
    <circle id="Ellipse_32" data-name="Ellipse 32" cx="9.018" cy="9.018" r="9.018" transform="translate(41.949 123.598)" fill="#bbbbcd"/>
    <path id="Path_863" data-name="Path 863" d="M171.186,120.742H161.067a1.394,1.394,0,0,1,0-2.788h10.119a6.1,6.1,0,0,0,6.08-6.1V70.592a11.262,11.262,0,0,0-1.43-5.478L153.32,25.529a11.092,11.092,0,0,0-9.62-5.6H15.741a6.113,6.113,0,0,0-6.1,6.1V111.85a6.113,6.113,0,0,0,6.1,6.1H25.868a1.394,1.394,0,1,1,0,2.788H15.741a8.9,8.9,0,0,1-8.893-8.893V26.026a8.9,8.9,0,0,1,8.893-8.893H143.708a13.888,13.888,0,0,1,12.043,7.011l22.522,39.585a14.066,14.066,0,0,1,1.79,6.849v41.257a8.89,8.89,0,0,1-8.876,8.907Z" transform="translate(9.067 13.273)" fill="#323c6b"/>
    <circle id="Ellipse_33" data-name="Ellipse 33" cx="24.908" cy="24.908" r="24.908" transform="translate(3.17 11.102)" fill="#eeefee"/>
    <path id="Path_864" data-name="Path 864" d="M23.923,10.208A24.841,24.841,0,0,0,4.1,20.065,24.874,24.874,0,0,1,38.974,54.928,24.885,24.885,0,0,0,23.92,10.208Z" transform="translate(4.155 0.894)" fill="#e1e6e9"/>
    <path id="Path_865" data-name="Path 865" d="M22.473,47.968A17.562,17.562,0,1,1,40.036,30.405,17.562,17.562,0,0,1,22.473,47.968Zm0-32.337A14.775,14.775,0,1,0,37.248,30.405,14.775,14.775,0,0,0,22.473,15.631Z" transform="translate(5.604 5.604)" fill="#fe7058"/>
    <path id="Path_866" data-name="Path 866" d="M30.865,40.192a1.394,1.394,0,0,1-.987-.407L7.019,16.926A1.394,1.394,0,1,1,8.99,14.955L31.849,37.814a1.394,1.394,0,0,1-.987,2.381Z" transform="translate(8.642 8.65)" fill="#fe7058"/>
    <path id="Path_867" data-name="Path 867" d="M28.078,62.311a26.3,26.3,0,1,1,26.3-26.3,26.3,26.3,0,0,1-26.3,26.3Zm0-49.813A23.514,23.514,0,1,0,51.592,36.012,23.514,23.514,0,0,0,28.078,12.5Z" transform="translate(0 0)" fill="#323c6b"/>
    <path id="Path_868" data-name="Path 868" d="M38.61,40.87h-.981a1.673,1.673,0,1,1-.025-3.345h.981a1.673,1.673,0,0,1,.025,3.345Z" transform="translate(61.08 49.727)" fill="#fff"/>
    <path id="Path_869" data-name="Path 869" d="M49.244,40.892,27.715,41a1.673,1.673,0,1,1-.025-3.345l21.529-.112a1.673,1.673,0,0,1,.025,3.345Z" transform="translate(43.357 49.767)" fill="#fff"/>
  </g>
</svg>
