<?xml version="1.0" encoding="utf-8"?>
<!-- Generator: Adobe Illustrator 25.2.3, SVG Export Plug-In . SVG Version: 6.00 Build 0)  -->
<svg version="1.1" id="Layer_1" xmlns="http://www.w3.org/2000/svg" xmlns:xlink="http://www.w3.org/1999/xlink" x="0px" y="0px"
	 viewBox="0 0 90 90" style="enable-background:new 0 0 90 90;" xml:space="preserve">
<style type="text/css">
	.st0{fill:#E30000;}
</style>
<path id="check-mark" class="st0" d="M90,45c0,24.9-20.2,45-45,45S0,69.9,0,45S20.2,0,45,0c0,0,0,0,0,0C69.9,0,90,20.1,90,45
	C90,45,90,45,90,45z M83,45C83,24,66,7,45,7C24,7,7,24,7,45c0,21,17,38,38,38c0,0,0,0,0,0C66,83,83,66,83,45C83,45,83,45,83,45
	L83,45z"/>
<g id="close_3_" transform="translate(-0.001 -1.844)">
	<g id="close_1_" transform="translate(0.001 1.844)">
		<path id="Path_1711" class="st0" d="M29.3,65c-1,0.1-1.9-0.3-2.6-0.9c-1.4-1.4-1.4-3.7,0-5.2l31.2-31.2c1.5-1.4,3.8-1.3,5.2,0.2
			c1.2,1.3,1.3,3.4,0.2,4.8L31.9,64.2C31.2,64.8,30.2,65.1,29.3,65L29.3,65z"/>
		<path id="Path_1712" class="st0" d="M60.4,65c-1,0-1.9-0.4-2.6-1.1L26.7,32.8c-1.3-1.5-1.1-3.9,0.4-5.2c1.4-1.2,3.4-1.2,4.7,0
			l31.4,31.2c1.5,1.4,1.6,3.7,0.2,5.2c-0.1,0.1-0.1,0.1-0.2,0.2C62.5,64.8,61.4,65.1,60.4,65L60.4,65z"/>
	</g>
</g>
</svg>
