<svg id="Group_829" data-name="Group 829" xmlns="http://www.w3.org/2000/svg" xmlns:xlink="http://www.w3.org/1999/xlink" width="99.5" height="116.845" viewBox="0 0 99.5 116.845">
  <defs>
    <clipPath id="clip-path">
      <rect id="Rectangle_529" data-name="Rectangle 529" width="99.5" height="116.845" fill="none"/>
    </clipPath>
    <clipPath id="clip-path-3">
      <rect id="Rectangle_525" data-name="Rectangle 525" width="25.239" height="8.772" fill="none"/>
    </clipPath>
    <clipPath id="clip-path-4">
      <rect id="Rectangle_526" data-name="Rectangle 526" width="25.132" height="7.808" fill="none"/>
    </clipPath>
    <clipPath id="clip-path-5">
      <rect id="Rectangle_527" data-name="Rectangle 527" width="25.577" height="15.873" fill="none"/>
    </clipPath>
  </defs>
  <g id="Group_828" data-name="Group 828" clip-path="url(#clip-path)">
    <g id="Group_827" data-name="Group 827">
      <g id="Group_826" data-name="Group 826" clip-path="url(#clip-path)">
        <path id="Path_1713" data-name="Path 1713" d="M38.992,145.473c-8.764,11.077-28.13,15.545-28.13,15.545s-.565-23.8,6.465-32.684,23.446-7.374,23.446-7.374,6.982,13.439-1.781,24.514" transform="translate(-3.966 -44.172)" fill="#163df9"/>
        <path id="Path_1714" data-name="Path 1714" d="M41.934,141.568c-6.1,7.716-19.567,10.849-19.567,10.849s-.362-16.553,4.535-22.742,16.3-5.161,16.3-5.161,4.834,9.338-1.271,17.053" transform="translate(-8.173 -45.484)" fill="#c0cbff"/>
        <path id="Path_1715" data-name="Path 1715" d="M78.6,151.184c-6.014-4.757-5.562-21.229-5.562-21.229s24.342-22.32,26.752-20.413c7.715,6.1-18.781,43.548-21.19,41.642" transform="translate(-26.69 -39.993)" fill="#e30000"/>
        <path id="Path_1716" data-name="Path 1716" d="M102.7,112.692a82.016,82.016,0,0,1-9.572,18.636,133.79,133.79,0,0,1-8.986,12.378,19.929,19.929,0,0,1-6.451,5.212,9.94,9.94,0,0,0,2.612,3.459c2.223,1.759,24.935-29.958,22.4-39.685" transform="translate(-28.394 -41.186)" fill="#ec6300"/>
        <path id="Path_1717" data-name="Path 1717" d="M.136,92.87c6.013,4.757,21.94.529,21.94.529S38.2,64.575,35.787,62.668c-7.716-6.1-38.061,28.3-35.651,30.2" transform="translate(0 -22.639)" fill="#e30000"/>
        <path id="Path_1718" data-name="Path 1718" d="M33.605,61.946a81.917,81.917,0,0,0-15.935,13.6A133.774,133.774,0,0,0,7.692,87.141,19.915,19.915,0,0,0,4.1,94.616,9.951,9.951,0,0,1,.136,92.87c-2.223-1.759,23.42-31.158,33.47-30.924" transform="translate(0 -22.639)" fill="#ec6300"/>
        <path id="Path_1719" data-name="Path 1719" d="M55.7,133.551c-1.409,1.78-3.692,2.319-5.1,1.2L28.913,117.6c-1.408-1.114-1.41-3.461,0-5.241l.362-.457c1.407-1.779,3.691-2.317,5.1-1.2l21.682,17.155c1.409,1.114,1.41,3.46,0,5.239Z" transform="translate(-10.181 -40.246)" fill="#e44200"/>
        <path id="Path_1720" data-name="Path 1720" d="M107.719.226S78.39-4.829,48.524,32.919a117.771,117.771,0,0,0-19.9,39.036l13.74,10.871L56.109,93.7A117.772,117.772,0,0,0,89.519,65.354c29.866-37.749,18.2-65.128,18.2-65.128" transform="translate(-10.463 0)" fill="#fff"/>
        <path id="Path_1721" data-name="Path 1721" d="M54.765,70.68c-2.693-.961-5.719,1.545-7.9,2.836-.944.558-3.214,2.069-4.14.651-1.655-2.534.3-7.511,1.068-9.985a166.564,166.564,0,0,1,7.267-18.24c5.5-12.286,14.281-21.986,25.214-29.707a110.031,110.031,0,0,1,16.22-9.579C97.488,4.288,103,3.191,107.811.459c-.057-.151-.092-.233-.092-.233S78.39-4.829,48.524,32.919a117.771,117.771,0,0,0-19.9,39.036L56.109,93.7s.494-.26,1.374-.767a19.567,19.567,0,0,1-2.717-22.25" transform="translate(-10.463 0)" fill="#d2d1d1"/>
        <path id="Path_1722" data-name="Path 1722" d="M140.718,24.731c2.6-15.215-1.36-24.5-1.36-24.5S129.408-1.484,115.2,4.542Z" transform="translate(-42.103 -0.001)" fill="#e30000"/>
        <path id="Path_1723" data-name="Path 1723" d="M104.428,68.389A16.723,16.723,0,1,1,101.689,44.9a16.724,16.724,0,0,1,2.739,23.491" transform="translate(-27.261 -15.09)" fill="#e44200"/>
        <path id="Path_1724" data-name="Path 1724" d="M103.611,68.214A12.81,12.81,0,0,1,80.789,61.2a12.6,12.6,0,0,1,.092-2.713,11.332,11.332,0,0,1,.255-1.322,12.482,12.482,0,0,1,1.441-3.473,11.849,11.849,0,0,1,.942-1.374,12.812,12.812,0,0,1,22.668,10.146,11.79,11.79,0,0,1-.3,1.313,12.542,12.542,0,0,1-1.022,2.518,12.324,12.324,0,0,1-1.254,1.919" transform="translate(-29.514 -17.344)" fill="#163df9"/>
        <g id="Group_819" data-name="Group 819" transform="translate(51.622 36.347)" style="mix-blend-mode: soft-light;isolation: isolate">
          <g id="Group_818" data-name="Group 818">
            <g id="Group_817" data-name="Group 817" clip-path="url(#clip-path-3)">
              <path id="Path_1725" data-name="Path 1725" d="M106.406,66.055l-25.051-5.3A12.5,12.5,0,0,1,82.8,57.283L106.5,62.3a12.777,12.777,0,0,1-.093,3.754" transform="translate(-81.355 -57.283)" fill="#fff"/>
            </g>
          </g>
        </g>
        <g id="Group_822" data-name="Group 822" transform="translate(51.241 41.142)" style="mix-blend-mode: soft-light;isolation: isolate">
          <g id="Group_821" data-name="Group 821">
            <g id="Group_820" data-name="Group 820" clip-path="url(#clip-path-4)">
              <path id="Path_1726" data-name="Path 1726" d="M104.864,72.648l-24.076-5.1a12.644,12.644,0,0,1,.093-2.713l25.005,5.291a12.582,12.582,0,0,1-1.022,2.518" transform="translate(-80.755 -64.84)" fill="#fff"/>
            </g>
          </g>
        </g>
        <g id="Group_825" data-name="Group 825" transform="translate(51.283 39.86)" style="mix-blend-mode: multiply;isolation: isolate">
          <g id="Group_824" data-name="Group 824">
            <g id="Group_823" data-name="Group 823" clip-path="url(#clip-path-5)">
              <path id="Path_1727" data-name="Path 1727" d="M106.026,62.819a12.807,12.807,0,0,1-25.205,4.045,12.807,12.807,0,1,0,25.205-4.045" transform="translate(-80.821 -62.819)" fill="#92a9b6"/>
            </g>
          </g>
        </g>
      </g>
    </g>
  </g>
</svg>
