<svg xmlns="http://www.w3.org/2000/svg" width="24" height="24" viewBox="0 0 24 24">
  <path id="world" d="M12,0A12,12,0,1,0,24,12,12.026,12.026,0,0,0,12,0ZM8.44,2.022a11.87,11.87,0,0,0-1.822,3.6H3.545A10.641,10.641,0,0,1,8.44,2.022ZM2.646,7.031H6.225A21.533,21.533,0,0,0,5.683,11.3H1.43A10.52,10.52,0,0,1,2.646,7.031ZM1.43,12.7H5.683a21.549,21.549,0,0,0,.532,4.219H2.621A10.516,10.516,0,0,1,1.43,12.7Zm2.079,5.625H6.6a11.918,11.918,0,0,0,1.838,3.65A10.643,10.643,0,0,1,3.509,18.328ZM11.3,22.473c-1.576-.534-2.648-2.577-3.21-4.145H11.3Zm0-5.552H7.66A19.857,19.857,0,0,1,7.09,12.7H11.3Zm0-5.625H7.09a19.817,19.817,0,0,1,.583-4.266H11.3Zm0-5.672H8.1c.562-1.553,1.63-3.569,3.193-4.1Zm9.158,0H17.382a11.871,11.871,0,0,0-1.822-3.6A10.641,10.641,0,0,1,20.455,5.625ZM12.7,1.527c1.564.53,2.631,2.546,3.193,4.1H12.7Zm0,5.5h3.625A19.82,19.82,0,0,1,16.91,11.3H12.7Zm0,5.671H16.91a19.857,19.857,0,0,1-.571,4.219H12.7Zm0,9.771V18.328h3.21C15.352,19.9,14.279,21.939,12.7,22.473Zm2.857-.5a11.916,11.916,0,0,0,1.838-3.65h3.093A10.641,10.641,0,0,1,15.56,21.978Zm5.819-5.056H17.785a21.549,21.549,0,0,0,.532-4.219H22.57A10.517,10.517,0,0,1,21.379,16.922ZM22.57,11.3H18.317a21.524,21.524,0,0,0-.543-4.266h3.579A10.516,10.516,0,0,1,22.57,11.3Z" fill="#163df9"/>
</svg>
