<svg xmlns="http://www.w3.org/2000/svg" xmlns:xlink="http://www.w3.org/1999/xlink" width="100" height="100" viewBox="0 0 100 100">
  <defs>
    <filter id="bg" x="0" y="0" width="100" height="100" filterUnits="userSpaceOnUse">
      <feOffset dy="12" input="SourceAlpha"/>
      <feGaussianBlur stdDeviation="8" result="blur"/>
      <feFlood flood-color="#455b63" flood-opacity="0.102"/>
      <feComposite operator="in" in2="blur"/>
      <feComposite in="SourceGraphic"/>
    </filter>
  </defs>
  <g id="Group_830" data-name="Group 830" transform="translate(-285 -542)">
    <g transform="matrix(1, 0, 0, 1, 285, 542)" filter="url(#bg)">
      <rect id="bg-2" data-name="bg" width="52" height="52" rx="12" transform="translate(24 12)" fill="#fff"/>
    </g>
    <g id="icons_gps" data-name="icons/gps" transform="translate(323 568)">
      <rect id="bg-3" data-name="bg" width="24" height="24" fill="none"/>
      <path id="path" d="M18.782,12.318a7.308,7.308,0,0,1-6.464,6.464v.9a.818.818,0,1,1-1.636,0v-.9a7.159,7.159,0,0,1-6.464-6.464h-.9a.818.818,0,1,1,0-1.636h.9a7.159,7.159,0,0,1,6.464-6.464v-.9a.818.818,0,1,1,1.636,0v.9a7.308,7.308,0,0,1,6.464,6.464h.9a.818.818,0,1,1,0,1.636ZM11.5,17.227A5.727,5.727,0,1,0,5.773,11.5,5.692,5.692,0,0,0,11.5,17.227Zm0-2.455A3.273,3.273,0,1,1,14.773,11.5,3.282,3.282,0,0,1,11.5,14.773Zm0-1.636A1.636,1.636,0,1,0,9.864,11.5,1.641,1.641,0,0,0,11.5,13.136Z" transform="translate(0.5 0.5)" fill="#454f63"/>
    </g>
  </g>
</svg>
